<?xml version="1.0" encoding="UTF-8" standalone="no" ?>
<!DOCTYPE svg PUBLIC "-//W3C//DTD SVG 1.1//EN" "http://www.w3.org/Graphics/SVG/1.1/DTD/svg11.dtd">
<svg xmlns="http://www.w3.org/2000/svg" xmlns:xlink="http://www.w3.org/1999/xlink" version="1.1" width="1080" height="1080" viewBox="0 0 1080 1080" xml:space="preserve">
<desc>Created with Fabric.js 5.2.4</desc>
<defs>
</defs>
<g transform="matrix(1 0 0 1 540 540)" id="9fe7f7b5-6d67-4e13-b316-e576eea2a585"  >
<rect style="stroke: none; stroke-width: 1; stroke-dasharray: none; stroke-linecap: butt; stroke-dashoffset: 0; stroke-linejoin: miter; stroke-miterlimit: 4; fill: rgb(255,255,255); fill-rule: nonzero; opacity: 1; visibility: hidden;" vector-effect="non-scaling-stroke"  x="-540" y="-540" rx="0" ry="0" width="1080" height="1080" />
</g>
<g transform="matrix(1 0 0 1 540 540)" id="ba9675da-5733-460d-9ae3-f74b2bf8dc20"  >
</g>
<g transform="matrix(NaN NaN NaN NaN 0 0)"  >
<g style=""   >
</g>
</g>
<g transform="matrix(NaN NaN NaN NaN 0 0)"  >
<g style=""   >
</g>
</g>
<g transform="matrix(7.59 0 0 7.59 591.83 539.5)"  >
<path style="stroke: none; stroke-width: 0; stroke-dasharray: none; stroke-linecap: butt; stroke-dashoffset: 0; stroke-linejoin: miter; stroke-miterlimit: 4; fill: rgb(111,64,68); fill-rule: nonzero; opacity: 1;" vector-effect="non-scaling-stroke"  transform=" translate(-89.92, -401.76)" d="M 33.728 384.688 C 33.728 384.688 33.676 384.212 33.574 383.284 C 33.539 382.819 33.422999999999995 382.241 33.419999999999995 381.549 C 33.41199999999999 380.85699999999997 33.382999999999996 380.05199999999996 33.385999999999996 379.137 C 33.507999999999996 377.321 33.648999999999994 375.037 34.404999999999994 372.454 C 35.114999999999995 369.873 36.288999999999994 366.948 38.279999999999994 364.046 C 40.25999999999999 361.152 43.068 358.292 46.76499999999999 356.04699999999997 C 47.21699999999999 355.751 47.71999999999999 355.53299999999996 48.202999999999996 355.267 C 48.699999999999996 355.028 49.172 354.717 49.705 354.529 C 50.751999999999995 354.112 51.806999999999995 353.631 52.949999999999996 353.34 C 55.19199999999999 352.61499999999995 57.629999999999995 352.205 60.169999999999995 352.058 C 62.712999999999994 351.909 65.372 352.166 68.02799999999999 352.822 C 70.67299999999999 353.51 73.318 354.612 75.77999999999999 356.17 C 78.25999999999999 357.716 80.54299999999999 359.65500000000003 82.79699999999998 361.699 C 83.91199999999998 362.729 85.04099999999998 363.772 86.18399999999998 364.82800000000003 C 86.74099999999999 365.326 87.38299999999998 365.94300000000004 87.87999999999998 366.569 L 88.42099999999998 367.23400000000004 C 88.53199999999998 367.355 88.64499999999998 367.54100000000005 88.75099999999998 367.593 C 88.85799999999998 367.41 88.94499999999998 367.26500000000004 89.07599999999998 367.076 C 89.15199999999997 366.958 89.51099999999998 366.481 89.78799999999998 366.148 C 90.37299999999998 365.432 90.99999999999999 364.75300000000004 91.64799999999998 364.09700000000004 C 92.95599999999999 362.78400000000005 94.30099999999999 361.57000000000005 95.66099999999999 360.29200000000003 C 97.03299999999999 359.02500000000003 98.469 357.76300000000003 100.03999999999999 356.605 C 101.60699999999999 355.459 103.323 354.374 105.18599999999999 353.63100000000003 C 108.83699999999999 351.973 112.943 351.04900000000004 117.14599999999999 351.07300000000004 C 121.34599999999999 351.08900000000006 125.62999999999998 352.04 129.57799999999997 353.913 C 133.52599999999998 355.779 137.13899999999998 358.57300000000004 139.96899999999997 362.12100000000004 C 142.81699999999998 365.651 144.79899999999998 369.96900000000005 145.77499999999998 374.516 C 146.74899999999997 379.081 146.66699999999997 383.921 145.66499999999996 388.565 C 144.66799999999995 393.219 142.89999999999998 397.694 140.64699999999996 401.946 C 138.39099999999996 406.20000000000005 135.65699999999995 410.216 132.67599999999996 414.074 C 129.68899999999996 417.934 126.41399999999996 421.623 122.93499999999996 425.161 C 115.95499999999996 432.219 108.26499999999996 438.783 100.04699999999995 444.882 C 97.99099999999996 446.404 95.89999999999995 447.895 93.77699999999996 449.35200000000003 C 92.71699999999996 450.083 91.64599999999996 450.802 90.56699999999996 451.51300000000003 L 89.75799999999997 452.047 C 89.49699999999997 452.23 89.08199999999997 452.48100000000005 88.69199999999996 452.452 C 88.30399999999996 452.45 87.90299999999996 452.166 87.66799999999996 451.987 L 86.88199999999996 451.415 C 82.68599999999996 448.37 78.55899999999997 445.182 74.54199999999996 441.81800000000004 C 66.49599999999995 435.11100000000005 58.89599999999996 427.694 52.06999999999996 419.55600000000004 C 58.21499999999996 426.39700000000005 64.92099999999996 432.73100000000005 72.02799999999996 438.581 C 75.58299999999997 441.505 79.23299999999996 444.314 82.95899999999996 447.022 C 84.81999999999996 448.378 86.71199999999996 449.703 88.58899999999996 451.001 C 88.63199999999996 451.03 88.68299999999995 451.05499999999995 88.73599999999996 451.049 C 88.76199999999996 451.046 88.78699999999996 451.036 88.80999999999996 451.02299999999997 L 88.84399999999997 451.003 L 88.99499999999996 450.899 L 90.41399999999996 449.919 L 93.23199999999996 447.923 C 100.70799999999996 442.548 107.85499999999996 436.716 114.58799999999997 430.44 C 121.31699999999996 424.172 127.61599999999997 417.433 132.92199999999997 409.966 C 135.56999999999996 406.236 137.97699999999998 402.343 139.87399999999997 398.219 C 141.76099999999997 394.1 143.21199999999996 389.759 143.77799999999996 385.315 C 144.36699999999996 380.877 144.00099999999998 376.339 142.62199999999996 372.098 C 141.26299999999995 367.869 138.83799999999997 364.007 135.63799999999995 360.94100000000003 C 132.43999999999994 357.88500000000005 128.50599999999994 355.54400000000004 124.21799999999995 354.384 C 119.94799999999995 353.188 115.39499999999995 353.03200000000004 111.06999999999995 353.978 C 110.51999999999995 354.055 109.99199999999995 354.225 109.46499999999995 354.394 L 107.87799999999994 354.883 C 106.83499999999994 355.25 105.84099999999994 355.752 104.81899999999995 356.176 C 102.84799999999994 357.149 101.02899999999994 358.44399999999996 99.28799999999994 359.877 C 97.55899999999994 361.306 95.86199999999994 362.909 94.16899999999994 364.452 C 93.33399999999995 365.227 92.53099999999993 366.01 91.79299999999994 366.829 C 91.41799999999994 367.246 91.08899999999994 367.641 90.73299999999993 368.104 C 90.15699999999994 368.86199999999997 89.50299999999993 369.94599999999997 88.89699999999993 370.894 C 88.38099999999993 370.259 87.86899999999993 369.632 87.35599999999994 368.975 L 86.66599999999994 368.076 L 86.28299999999994 367.59700000000004 C 86.02699999999994 367.28700000000003 85.76999999999994 366.997 85.50299999999994 366.73900000000003 L 84.57299999999994 365.853 C 83.32099999999994 364.658 82.08699999999993 363.462 80.83199999999994 362.308 C 79.57699999999994 361.155 78.30199999999994 360.04 76.97599999999994 359.013 C 75.65799999999994 358.001 74.26599999999995 357.097 72.81099999999994 356.31899999999996 C 69.90399999999994 354.74999999999994 66.69699999999993 353.80799999999994 63.42599999999994 353.47999999999996 C 61.78799999999994 353.31699999999995 60.13299999999994 353.34099999999995 58.48699999999994 353.48699999999997 C 56.847999999999935 353.64599999999996 55.18499999999994 353.89599999999996 53.60499999999994 354.36699999999996 C 47.20799999999994 356.01399999999995 41.52799999999994 360.152 37.98299999999994 365.71899999999994 C 34.387 371.27 32.967 378.104 33.728 384.688 z" stroke-linecap="round" />
</g>
<g transform="matrix(2.61 -1.28 1.28 2.61 236.89 521.92)"  >
<path style="stroke: none; stroke-width: 0; stroke-dasharray: none; stroke-linecap: butt; stroke-dashoffset: 0; stroke-linejoin: miter; stroke-miterlimit: 4; fill: rgb(111,64,68); fill-rule: nonzero; opacity: 1;" vector-effect="non-scaling-stroke"  transform=" translate(-89.92, -401.76)" d="M 33.728 384.688 C 33.728 384.688 33.676 384.212 33.574 383.284 C 33.539 382.819 33.422999999999995 382.241 33.419999999999995 381.549 C 33.41199999999999 380.85699999999997 33.382999999999996 380.05199999999996 33.385999999999996 379.137 C 33.507999999999996 377.321 33.648999999999994 375.037 34.404999999999994 372.454 C 35.114999999999995 369.873 36.288999999999994 366.948 38.279999999999994 364.046 C 40.25999999999999 361.152 43.068 358.292 46.76499999999999 356.04699999999997 C 47.21699999999999 355.751 47.71999999999999 355.53299999999996 48.202999999999996 355.267 C 48.699999999999996 355.028 49.172 354.717 49.705 354.529 C 50.751999999999995 354.112 51.806999999999995 353.631 52.949999999999996 353.34 C 55.19199999999999 352.61499999999995 57.629999999999995 352.205 60.169999999999995 352.058 C 62.712999999999994 351.909 65.372 352.166 68.02799999999999 352.822 C 70.67299999999999 353.51 73.318 354.612 75.77999999999999 356.17 C 78.25999999999999 357.716 80.54299999999999 359.65500000000003 82.79699999999998 361.699 C 83.91199999999998 362.729 85.04099999999998 363.772 86.18399999999998 364.82800000000003 C 86.74099999999999 365.326 87.38299999999998 365.94300000000004 87.87999999999998 366.569 L 88.42099999999998 367.23400000000004 C 88.53199999999998 367.355 88.64499999999998 367.54100000000005 88.75099999999998 367.593 C 88.85799999999998 367.41 88.94499999999998 367.26500000000004 89.07599999999998 367.076 C 89.15199999999997 366.958 89.51099999999998 366.481 89.78799999999998 366.148 C 90.37299999999998 365.432 90.99999999999999 364.75300000000004 91.64799999999998 364.09700000000004 C 92.95599999999999 362.78400000000005 94.30099999999999 361.57000000000005 95.66099999999999 360.29200000000003 C 97.03299999999999 359.02500000000003 98.469 357.76300000000003 100.03999999999999 356.605 C 101.60699999999999 355.459 103.323 354.374 105.18599999999999 353.63100000000003 C 108.83699999999999 351.973 112.943 351.04900000000004 117.14599999999999 351.07300000000004 C 121.34599999999999 351.08900000000006 125.62999999999998 352.04 129.57799999999997 353.913 C 133.52599999999998 355.779 137.13899999999998 358.57300000000004 139.96899999999997 362.12100000000004 C 142.81699999999998 365.651 144.79899999999998 369.96900000000005 145.77499999999998 374.516 C 146.74899999999997 379.081 146.66699999999997 383.921 145.66499999999996 388.565 C 144.66799999999995 393.219 142.89999999999998 397.694 140.64699999999996 401.946 C 138.39099999999996 406.20000000000005 135.65699999999995 410.216 132.67599999999996 414.074 C 129.68899999999996 417.934 126.41399999999996 421.623 122.93499999999996 425.161 C 115.95499999999996 432.219 108.26499999999996 438.783 100.04699999999995 444.882 C 97.99099999999996 446.404 95.89999999999995 447.895 93.77699999999996 449.35200000000003 C 92.71699999999996 450.083 91.64599999999996 450.802 90.56699999999996 451.51300000000003 L 89.75799999999997 452.047 C 89.49699999999997 452.23 89.08199999999997 452.48100000000005 88.69199999999996 452.452 C 88.30399999999996 452.45 87.90299999999996 452.166 87.66799999999996 451.987 L 86.88199999999996 451.415 C 82.68599999999996 448.37 78.55899999999997 445.182 74.54199999999996 441.81800000000004 C 66.49599999999995 435.11100000000005 58.89599999999996 427.694 52.06999999999996 419.55600000000004 C 58.21499999999996 426.39700000000005 64.92099999999996 432.73100000000005 72.02799999999996 438.581 C 75.58299999999997 441.505 79.23299999999996 444.314 82.95899999999996 447.022 C 84.81999999999996 448.378 86.71199999999996 449.703 88.58899999999996 451.001 C 88.63199999999996 451.03 88.68299999999995 451.05499999999995 88.73599999999996 451.049 C 88.76199999999996 451.046 88.78699999999996 451.036 88.80999999999996 451.02299999999997 L 88.84399999999997 451.003 L 88.99499999999996 450.899 L 90.41399999999996 449.919 L 93.23199999999996 447.923 C 100.70799999999996 442.548 107.85499999999996 436.716 114.58799999999997 430.44 C 121.31699999999996 424.172 127.61599999999997 417.433 132.92199999999997 409.966 C 135.56999999999996 406.236 137.97699999999998 402.343 139.87399999999997 398.219 C 141.76099999999997 394.1 143.21199999999996 389.759 143.77799999999996 385.315 C 144.36699999999996 380.877 144.00099999999998 376.339 142.62199999999996 372.098 C 141.26299999999995 367.869 138.83799999999997 364.007 135.63799999999995 360.94100000000003 C 132.43999999999994 357.88500000000005 128.50599999999994 355.54400000000004 124.21799999999995 354.384 C 119.94799999999995 353.188 115.39499999999995 353.03200000000004 111.06999999999995 353.978 C 110.51999999999995 354.055 109.99199999999995 354.225 109.46499999999995 354.394 L 107.87799999999994 354.883 C 106.83499999999994 355.25 105.84099999999994 355.752 104.81899999999995 356.176 C 102.84799999999994 357.149 101.02899999999994 358.44399999999996 99.28799999999994 359.877 C 97.55899999999994 361.306 95.86199999999994 362.909 94.16899999999994 364.452 C 93.33399999999995 365.227 92.53099999999993 366.01 91.79299999999994 366.829 C 91.41799999999994 367.246 91.08899999999994 367.641 90.73299999999993 368.104 C 90.15699999999994 368.86199999999997 89.50299999999993 369.94599999999997 88.89699999999993 370.894 C 88.38099999999993 370.259 87.86899999999993 369.632 87.35599999999994 368.975 L 86.66599999999994 368.076 L 86.28299999999994 367.59700000000004 C 86.02699999999994 367.28700000000003 85.76999999999994 366.997 85.50299999999994 366.73900000000003 L 84.57299999999994 365.853 C 83.32099999999994 364.658 82.08699999999993 363.462 80.83199999999994 362.308 C 79.57699999999994 361.155 78.30199999999994 360.04 76.97599999999994 359.013 C 75.65799999999994 358.001 74.26599999999995 357.097 72.81099999999994 356.31899999999996 C 69.90399999999994 354.74999999999994 66.69699999999993 353.80799999999994 63.42599999999994 353.47999999999996 C 61.78799999999994 353.31699999999995 60.13299999999994 353.34099999999995 58.48699999999994 353.48699999999997 C 56.847999999999935 353.64599999999996 55.18499999999994 353.89599999999996 53.60499999999994 354.36699999999996 C 47.20799999999994 356.01399999999995 41.52799999999994 360.152 37.98299999999994 365.71899999999994 C 34.387 371.27 32.967 378.104 33.728 384.688 z" stroke-linecap="round" />
</g>
<g transform="matrix(NaN NaN NaN NaN 0 0)"  >
<g style=""   >
</g>
</g>
<g transform="matrix(NaN NaN NaN NaN 0 0)"  >
<g style=""   >
</g>
</g>
<g transform="matrix(NaN NaN NaN NaN 0 0)"  >
<g style=""   >
</g>
</g>
<g transform="matrix(NaN NaN NaN NaN 0 0)"  >
<g style=""   >
</g>
</g>
<g transform="matrix(NaN NaN NaN NaN 0 0)"  >
<g style=""   >
</g>
</g>
</svg>